<mxfile host="app.diagrams.net" agent="Mozilla/5.0 (Windows NT 10.0; Win64; x64) AppleWebKit/537.36 (KHTML, like Gecko) Chrome/128.0.0.0 Safari/537.36" version="24.7.14">
  <diagram name="Page-1" id="m_CTQXTZepPv7_hba_2K">
    <mxGraphModel dx="417" dy="523" grid="1" gridSize="10" guides="1" tooltips="1" connect="1" arrows="1" fold="1" page="1" pageScale="1" pageWidth="850" pageHeight="1100" math="0" shadow="0">
      <root>
        <mxCell id="0" />
        <mxCell id="1" parent="0" />
        <mxCell id="PFhRMsVk6HXeF8vmKrcg-1" value="&lt;p style=&quot;margin:0px;margin-top:4px;text-align:center;&quot;&gt;&lt;i&gt;&amp;lt;&amp;lt;Interface&amp;gt;&amp;gt;&lt;/i&gt;&lt;br&gt;&lt;b&gt;Renderable&lt;/b&gt;&lt;/p&gt;&lt;hr size=&quot;1&quot; style=&quot;border-style:solid;&quot;&gt;&lt;p style=&quot;margin:0px;margin-left:4px;&quot;&gt;# getImage(): Image&lt;/p&gt;&lt;p style=&quot;margin:0px;margin-left:4px;&quot;&gt;# getWidth(): double&lt;/p&gt;&lt;p style=&quot;margin:0px;margin-left:4px;&quot;&gt;# getHeight(): double&lt;/p&gt;&lt;p style=&quot;margin:0px;margin-left:4px;&quot;&gt;# getPosition(): Vector2D&lt;/p&gt;&lt;p style=&quot;margin:0px;margin-left:4px;&quot;&gt;# getLayer(): Renderable.Layer&lt;/p&gt;&lt;p style=&quot;margin:0px;margin-left:4px;&quot;&gt;# getBoundingBox():&amp;nbsp;&lt;span style=&quot;background-color: initial;&quot;&gt;BoundingBox&lt;/span&gt;&lt;/p&gt;&lt;p style=&quot;margin:0px;margin-left:4px;&quot;&gt;&lt;span style=&quot;background-color: initial;&quot;&gt;# reset(): void&lt;/span&gt;&lt;/p&gt;" style="verticalAlign=top;align=left;overflow=fill;html=1;whiteSpace=wrap;" vertex="1" parent="1">
          <mxGeometry y="360" width="190" height="150" as="geometry" />
        </mxCell>
      </root>
    </mxGraphModel>
  </diagram>
</mxfile>
